<svg width="156" height="214" viewBox="0 0 156 214" fill="none" xmlns="http://www.w3.org/2000/svg">
<path fill-rule="evenodd" clip-rule="evenodd" d="M69.3455 0.719529C58.9202 2.67953 49.3998 8.274 43.5233 15.8941C35.1496 26.752 33.2821 38.1177 37.7043 51.3049C38.3926 53.3569 38.9063 55.0598 38.8456 55.0892C38.7855 55.1186 37.7501 55.4026 36.5454 55.7205C33.5946 56.4992 31.6154 58.0209 30.4293 60.4231C29.1805 62.9542 29.1778 65.3163 30.4213 67.8081C32.473 71.9191 35.1134 72.8991 44.2169 72.929L50.7626 72.9506L50.4804 77.7257C50.3255 80.3522 50.0636 85.0353 49.8991 88.133C49.3029 99.3474 47.6122 110.953 44.8339 122.906C40.8685 139.966 33.0665 158.867 24.3649 172.493C22.0019 176.194 21.8895 176.289 19.8725 176.289C16.9026 176.289 11.8778 177.848 9.02128 179.656C6.04709 181.539 4.39045 183.466 2.42665 187.329C0.965377 190.203 0.943018 190.389 0.941421 199.637C0.939824 210.083 1.05747 210.475 4.92705 212.898L6.68697 214H78.3953H150.104L151.913 212.888C155.329 210.788 155.66 209.518 155.446 199.307C155.282 191.416 155.108 189.899 154.1 187.553C151.395 181.254 144.924 176.961 137.342 176.434L133.32 176.154L129.966 170.717C115.586 147.405 106.954 115.874 105.208 80.2748L104.848 72.9506H110.816C114.099 72.9506 117.812 72.7125 119.068 72.4216C126.023 70.8103 128.162 62.3077 122.778 57.6771C121.044 56.1853 118.885 55.3194 116.898 55.3194C115.827 55.3194 115.62 55.1406 115.905 54.4623C119.92 44.9023 120.228 35.2943 116.813 26.1785C110.06 8.15352 89.23 -3.01828 69.3455 0.719529Z" fill="#CCA66A"/>
</svg>
