<svg xmlns="http://www.w3.org/2000/svg" width="18.695" height="37.187" viewBox="0 0 18.695 37.187"><g transform="translate(0 0)"><g transform="translate(0 0)"><path d="M10.021,37.172s-9.431.032-9.833,0-.043-6.316,0-6.386,2.7-.191,4.272-5.493C5.816,20.716,5.781,12.758,5.8,12.459c.018-.339-1.8-.082-2.218-.234s-.13-2.981,0-2.991,3.965.028,4.176,0,0-1.835,0-2.213S5.2,5.7,5.689,3.3A3.9,3.9,0,0,1,9.494,0" transform="translate(0)" fill="#0f1f38"/><path d="M0,37.172s9.431.032,9.833,0,.043-6.316,0-6.386-2.7-.191-4.272-5.493c-1.355-4.578-1.32-12.536-1.334-12.835-.018-.339,1.8-.082,2.218-.234s.157-2.981,0-2.991-3.965.028-4.176,0,0-1.835,0-2.213S4.822,5.7,4.332,3.3A3.9,3.9,0,0,0,.527,0" transform="translate(8.673 0)" fill="#0f1f38"/></g></g></svg>