<svg xmlns="http://www.w3.org/2000/svg" width="21.939" height="41.713" viewBox="0 0 21.939 41.713"><g transform="translate(0.988 1)"><g transform="translate(0 0)"><g transform="translate(0 0)"><path d="M10.7,39.7S.63,39.731.2,39.7s-.046-6.745,0-6.819,2.887-.2,4.562-5.866C6.211,22.122,6.173,13.624,6.189,13.3c.02-.362-1.924-.088-2.369-.25s-.139-3.183,0-3.194,4.234.03,4.459,0,0-1.959,0-2.363-2.726-1.413-2.2-3.978A4.167,4.167,0,0,1,10.139,0" fill="#fff" stroke="#0f1f38" stroke-width="2"/><path d="M0,39.7s10.072.034,10.5,0,.046-6.745,0-6.819-2.887-.2-4.562-5.866C4.491,22.122,4.528,13.624,4.513,13.3c-.02-.362,1.924-.088,2.369-.25s.168-3.183,0-3.194-4.234.03-4.459,0,0-1.959,0-2.363,2.726-1.413,2.2-3.978A4.167,4.167,0,0,0,.563,0" transform="translate(9.262 0)" fill="#0f1f38" stroke="#0f1f38" stroke-width="2"/></g></g></g></svg>