<svg width="162" height="214" viewBox="0 0 162 214" fill="none" xmlns="http://www.w3.org/2000/svg">
<path fill-rule="evenodd" clip-rule="evenodd" d="M75.3455 0.719529C64.9202 2.67953 55.3998 8.274 49.5233 15.8941C41.1496 26.752 39.2821 38.1177 43.7043 51.3049C44.3926 53.3569 44.9063 55.0598 44.8456 55.0892C44.7855 55.1186 43.7501 55.4026 42.5454 55.7205C39.5946 56.4992 37.6154 58.0209 36.4293 60.4231C35.1805 62.9542 35.1778 65.3163 36.4213 67.8081C38.473 71.9191 41.1134 72.8991 50.2169 72.929L56.7626 72.9506L56.4804 77.7257C56.3255 80.3522 56.0636 85.0353 55.8991 88.133C55.3029 99.3474 53.6122 110.953 50.8339 122.906C46.8685 139.966 39.0665 158.867 30.3649 172.493C28.0019 176.194 27.8895 176.289 25.8725 176.289C22.9026 176.289 17.8778 177.848 15.0213 179.656C12.0471 181.539 10.3905 183.466 8.42665 187.329C6.96538 190.203 6.94302 190.389 6.94142 199.637C6.93982 210.083 7.05747 210.475 10.9271 212.898L12.687 214H84.3953H156.104L157.913 212.888C161.329 210.788 161.66 209.518 161.446 199.307C161.282 191.416 161.108 189.899 160.1 187.553C157.395 181.254 150.924 176.961 143.342 176.434L139.32 176.154L135.966 170.717C121.586 147.405 112.954 115.874 111.208 80.2748L110.848 72.9506H116.816C120.099 72.9506 123.812 72.7125 125.068 72.4216C132.023 70.8103 134.162 62.3077 128.778 57.6771C127.044 56.1853 124.885 55.3194 122.898 55.3194C121.827 55.3194 121.62 55.1406 121.905 54.4623C125.92 44.9023 126.228 35.2943 122.813 26.1785C116.06 8.15352 95.23 -3.01828 75.3455 0.719529Z" fill="#CCA66A"/>
<path fill-rule="evenodd" clip-rule="evenodd" d="M80.6211 214H77.9569H6.37689L4.57125 212.888C1.1608 210.788 0.830811 209.518 1.0439 199.307C1.20809 191.416 1.38185 189.899 2.38777 187.553C5.08775 181.254 11.5468 176.961 19.1153 176.434L23.1305 176.154L26.4788 170.717C40.8331 147.405 49.4496 115.874 51.1925 80.2748L51.5512 72.9506H45.5938C42.3173 72.9506 38.6104 72.7125 37.3568 72.4216C30.4148 70.8103 28.2796 62.3077 33.6536 57.6771C35.3843 56.1853 37.5401 55.3194 39.5227 55.3194C40.5919 55.3194 40.7986 55.1406 40.5143 54.4623C36.5066 44.9023 36.1989 35.2943 39.6078 26.1785C45.6295 10.0773 62.8633 -0.555485 80.6211 0.0224441V214Z" fill="white"/>
</svg>
