<svg width="24" height="24" viewBox="0 0 24 24" fill="none" xmlns="http://www.w3.org/2000/svg">
<path fill-rule="evenodd" clip-rule="evenodd" d="M10.8002 0.0334748C8.61867 0.269097 6.59161 1.01553 4.89642 2.20741C3.87397 2.92629 3.14703 3.60455 2.42074 4.51729C0.084815 7.453 -0.59784 11.1713 0.538096 14.7716C0.697945 15.2784 1.33863 16.6373 1.63581 17.0999L1.88781 17.4923L1.85253 17.9182C1.67494 20.0617 1.00467 22.2081 0.219684 23.147C-0.0445332 23.463 -0.0679043 23.6688 0.136008 23.8834C0.294409 24.0502 0.319711 24.0488 1.44616 23.809C3.40712 23.3915 5.39435 22.7022 6.64066 22.0073L7.09115 21.7561L7.62876 21.9574C8.29399 22.2065 9.21985 22.453 9.9961 22.5876C10.4622 22.6684 10.8834 22.6895 12.0063 22.6886C13.5011 22.6873 14.1362 22.615 15.2267 22.3219C19.2082 21.2516 22.3874 18.2649 23.5221 14.5288C24.5528 11.1349 23.9021 7.60324 21.7085 4.6866C20.7765 3.44726 19.3113 2.21401 17.8599 1.44721C16.5274 0.743163 15.1226 0.293082 13.6144 0.0869202C12.9855 0.000911118 11.3831 -0.0295082 10.8002 0.0334748ZM7.09807 9.87452C7.98662 10.3322 8.26284 11.5667 7.65695 12.3726C6.87545 13.4119 5.28811 13.1574 4.90114 11.9307C4.61564 11.0258 5.06854 10.049 5.90724 9.76074C6.24367 9.64516 6.74589 9.69313 7.09807 9.87452ZM12.6528 9.83535C13.4018 10.1891 13.7912 11.2329 13.4644 12.0109C13.1023 12.8725 12.1449 13.2669 11.3478 12.8827C10.4167 12.434 10.118 11.242 10.718 10.37C11.1433 9.75183 11.9841 9.51948 12.6528 9.83535ZM18.2545 9.84608C19.3906 10.3744 19.5106 12.0243 18.466 12.7543C17.6248 13.3421 16.4182 12.925 16.107 11.9387C15.7406 10.7771 16.5339 9.63924 17.6648 9.70425C17.8455 9.71463 18.1073 9.77762 18.2545 9.84608Z" fill="url(#paint0_linear_1066_199)"/>
<defs>
<linearGradient id="paint0_linear_1066_199" x1="12" y1="0" x2="12" y2="24" gradientUnits="userSpaceOnUse">
<stop stop-color="#ADA29F"/>
<stop offset="1" stop-color="#6D6461"/>
</linearGradient>
</defs>
</svg>
