<svg xmlns="http://www.w3.org/2000/svg" width="53" height="53" viewBox="0 0 53 53"><g transform="translate(-56 -511)"><circle cx="26.5" cy="26.5" r="26.5" transform="translate(56 511)" fill="#d8e7ff"/><g transform="translate(74.075 524.601)" fill="#297bfb"><path d="M 14.77881145477295 18.78702163696289 L 9.252483367919922 15.83727741241455 L 9.01666259765625 15.71140766143799 L 8.781013488769531 15.83759784698486 L 3.276206254959106 18.78533363342285 L 4.30668306350708 12.60244750976563 L 4.349613189697266 12.34482765197754 L 4.162703037261963 12.16240787506104 L -0.2562403082847595 7.849949836730957 L 5.889352798461914 6.944097518920898 L 6.148743152618408 6.905857563018799 L 6.264792919158936 6.670757293701172 L 9.018484115600586 1.09230899810791 L 11.79051303863525 6.671907424926758 L 11.90686321258545 6.906097412109375 L 12.16558265686035 6.944127559661865 L 18.32872581481934 7.849948406219482 L 13.8927526473999 12.16170787811279 L 13.70501327514648 12.34419727325439 L 13.7480525970459 12.60244750976563 L 14.77881145477295 18.78702163696289 Z" stroke="none"/><path d="M 9.019922256469727 2.218986511230469 L 6.713143348693848 6.892077445983887 L 6.481033325195313 7.362277030944824 L 5.962263107299805 7.438747406005859 L 0.8156280517578125 8.197354316711426 L 4.511913299560547 11.80456733703613 L 4.88575267791748 12.16939735412598 L 4.799873352050781 12.68464756011963 L 3.936558723449707 17.86455535888672 L 8.54498291015625 15.39681720733643 L 9.01628303527832 15.14443778991699 L 9.487922668457031 15.39617729187012 L 14.11874008178711 17.8679313659668 L 13.25486278533936 12.68464756011963 L 13.16877365112305 12.168137550354 L 13.54425239562988 11.80316734313965 L 17.25394821166992 8.197348594665527 L 12.09288311004639 7.438807487487793 L 11.5754337310791 7.362757682800293 L 11.34272289276123 6.894367218017578 L 9.019922256469727 2.218986511230469 M 9.017043113708496 -0.03436279296875 L 12.2382926940918 6.449437141418457 L 19.40351295471191 7.502537727355957 L 14.24125289916992 12.52024745941162 L 15.43889331817627 19.70611763000488 L 9.017043113708496 16.27837753295898 L 2.615842819213867 19.70611763000488 L 3.813483238220215 12.52024745941162 L -1.328126907348633 7.502537727355957 L 5.81644344329834 6.449437141418457 L 9.017043113708496 -0.03436279296875 Z" stroke="none" fill="#297bfb"/></g><g transform="translate(92.576 533.852)" fill="#297bfb"><path d="M 8.00609302520752 10.81322383880615 L 5.073746204376221 9.248049736022949 L 4.837925910949707 9.122179985046387 L 4.602275848388672 9.248370170593262 L 1.683110475540161 10.8115348815918 L 2.229825973510742 7.53125 L 2.272755861282349 7.273630142211914 L 2.085845947265625 7.091209888458252 L -0.2562381029129028 4.805562019348145 L 3.003436088562012 4.325089931488037 L 3.262825965881348 4.286849975585938 L 3.378875970840454 4.051750183105469 L 4.839746952056885 1.092310070991516 L 6.310616016387939 4.052899837493896 L 6.426966190338135 4.287089824676514 L 6.685686111450195 4.325119972229004 L 9.954568862915039 4.80556058883667 L 7.603796005249023 7.09050989151001 L 7.416056156158447 7.27299976348877 L 7.45909595489502 7.53125 L 8.00609302520752 10.81322383880615 Z" stroke="none"/><path d="M 4.841190814971924 2.218975067138672 L 3.827226161956787 4.273069858551025 L 3.595116138458252 4.743269920349121 L 3.076345920562744 4.819739818572998 L 0.8156299591064453 5.152966976165771 L 2.435056209564209 6.733369827270508 L 2.808896064758301 7.098199844360352 L 2.723015785217285 7.613450050354004 L 2.343463897705078 9.890756607055664 L 4.366245746612549 8.807590484619141 L 4.837545871734619 8.555210113525391 L 5.309185981750488 8.806949615478516 L 7.346020698547363 9.894134521484375 L 6.965906143188477 7.613450050354004 L 6.879816055297852 7.096940040588379 L 7.255295753479004 6.731979846954346 L 8.879800796508789 5.152962684631348 L 6.612986087799072 4.819799900054932 L 6.095536231994629 4.743750095367432 L 5.862835884094238 4.275360107421875 L 4.841190814971924 2.218975067138672 M 4.838305950164795 -0.03435993194580078 L 6.758396148681641 3.830430030822754 L 11.02935600280762 4.458149909973145 L 7.952296257019043 7.449049949645996 L 8.666175842285156 11.73231983184814 L 4.838305950164795 9.689149856567383 L 1.022746086120605 11.73231983184814 L 1.736626148223877 7.449049949645996 L -1.328124046325684 4.458149909973145 L 2.930525779724121 3.830430030822754 L 4.838305950164795 -0.03435993194580078 Z" stroke="none" fill="#297bfb"/></g><g transform="translate(63.502 533.852)" fill="#297bfb"><path d="M 8.00609302520752 10.81322383880615 L 5.073746204376221 9.248049736022949 L 4.837925910949707 9.122179985046387 L 4.602275848388672 9.248370170593262 L 1.683110475540161 10.8115348815918 L 2.229825973510742 7.53125 L 2.272755861282349 7.273630142211914 L 2.085845947265625 7.091209888458252 L -0.2562381029129028 4.805562019348145 L 3.003436088562012 4.325089931488037 L 3.262825965881348 4.286849975585938 L 3.378875970840454 4.051750183105469 L 4.839746952056885 1.092310070991516 L 6.310616016387939 4.052899837493896 L 6.426966190338135 4.287089824676514 L 6.685686111450195 4.325119972229004 L 9.954568862915039 4.80556058883667 L 7.603796005249023 7.09050989151001 L 7.416056156158447 7.27299976348877 L 7.45909595489502 7.53125 L 8.00609302520752 10.81322383880615 Z" stroke="none"/><path d="M 4.841190814971924 2.218975067138672 L 3.827226161956787 4.273069858551025 L 3.595116138458252 4.743269920349121 L 3.076345920562744 4.819739818572998 L 0.8156299591064453 5.152966976165771 L 2.435056209564209 6.733369827270508 L 2.808896064758301 7.098199844360352 L 2.723015785217285 7.613450050354004 L 2.343463897705078 9.890756607055664 L 4.366245746612549 8.807590484619141 L 4.837545871734619 8.555210113525391 L 5.309185981750488 8.806949615478516 L 7.346020698547363 9.894134521484375 L 6.965906143188477 7.613450050354004 L 6.879816055297852 7.096940040588379 L 7.255295753479004 6.731979846954346 L 8.879800796508789 5.152962684631348 L 6.612986087799072 4.819799900054932 L 6.095536231994629 4.743750095367432 L 5.862835884094238 4.275360107421875 L 4.841190814971924 2.218975067138672 M 4.838305950164795 -0.03435993194580078 L 6.758396148681641 3.830430030822754 L 11.02935600280762 4.458149909973145 L 7.952296257019043 7.449049949645996 L 8.666175842285156 11.73231983184814 L 4.838305950164795 9.689149856567383 L 1.022746086120605 11.73231983184814 L 1.736626148223877 7.449049949645996 L -1.328124046325684 4.458149909973145 L 2.930525779724121 3.830430030822754 L 4.838305950164795 -0.03435993194580078 Z" stroke="none" fill="#297bfb"/></g></g></svg>