<svg xmlns="http://www.w3.org/2000/svg" width="62.741" height="121.951" viewBox="0 0 62.741 121.951"><g transform="translate(-599.583 -713.554)"><g transform="translate(601.055 715.054)"><g transform="translate(0 0)"><g transform="translate(0 0)"><g transform="translate(0 0)"><path d="M32.054,118.9S1.887,119,.6,118.9.465,98.7.6,98.475s8.646-.611,13.665-17.569c4.334-14.644,4.223-40.1,4.269-41.055.059-1.084-5.763-.263-7.1-.748s-.415-9.535,0-9.568,12.682.088,13.357,0,0-5.869,0-7.078-8.165-4.231-6.6-11.916S25.868,0,30.369,0" fill="#fff" stroke="#a1a1a1" stroke-width="3"/><path d="M0,118.9s30.167.1,31.452,0,.138-20.2,0-20.425-8.646-.611-13.665-17.569c-4.334-14.644-4.222-40.1-4.268-41.055-.059-1.084,5.763-.263,7.1-.748s.5-9.535,0-9.568-12.682.088-13.357,0,0-5.869,0-7.078,8.165-4.231,6.6-11.916S6.186,0,1.685,0" transform="translate(27.743 0)" fill="#fff" stroke="#a1a1a1" stroke-width="3"/></g><line y1="0.054" x2="3.648" transform="translate(27.341 0.285)" fill="none" stroke="#a1a1a1" stroke-width="2"/></g></g><line x2="5.757" transform="translate(25.233 118.626)" fill="none" stroke="#a1a1a1" stroke-width="2"/></g></g></svg>