<svg xmlns="http://www.w3.org/2000/svg" width="74.476" height="126.109" viewBox="0 0 74.476 126.109"><g transform="translate(43.325 -150.481) rotate(-16)"><g transform="translate(0 0)"><path d="M42.5,7.3c-.35-.387-4.779-8.934-7.61-7.019s-.666,6.865-.974,7.019-7.831.5-9.755,2.049,4.431,3.382,4.592,3.5a27.139,27.139,0,0,1,0,3.613S1.179,41.691.1,43.772s6.67,18.4,14.327,14.24,11.988-14.49,25.311-13.24S14.757,76.748,14.428,77.413s-.247,10.743,0,11.492,7.158,4.747,6.492,7.328c-2,10.409-15.9,16.291-16.4,16.654-.916.666-.912,10.158,0,10.159s65.956.083,66.535,0,.578-8.993,0-10.159S59.641,102.646,59.641,96.234s10.083-16.822,11.328-50.8S42.848,7.685,42.5,7.3Z" transform="translate(-82.116 134.593) rotate(16)" fill="#fff" stroke="#a1a1a1" stroke-width="3"/></g></g></svg>