<svg xmlns="http://www.w3.org/2000/svg" width="12.333" height="24.533" viewBox="0 0 12.333 24.533"><g transform="translate(-1805.291 -657.061)"><g transform="translate(1805.29 657.061)"><g transform="translate(0 0)"><g transform="translate(0 0)"><path d="M6.611,24.523s-6.222.021-6.487,0-.028-4.167,0-4.213,1.783-.126,2.818-3.624a38.545,38.545,0,0,0,.88-8.468C3.835,8,2.635,8.165,2.36,8.065s-.086-1.967,0-1.973,2.616.018,2.755,0,0-1.21,0-1.46S3.43,3.759,3.753,2.174A2.574,2.574,0,0,1,6.264,0" transform="translate(0 0)" fill="#0f1f38"/><path d="M0,24.523s6.222.021,6.487,0,.028-4.167,0-4.213S4.7,20.184,3.668,16.687a38.546,38.546,0,0,1-.88-8.468C2.776,8,3.977,8.165,4.252,8.065s.1-1.967,0-1.973-2.616.018-2.755,0,0-1.21,0-1.46,1.684-.873,1.362-2.458A2.574,2.574,0,0,0,.348,0" transform="translate(5.722 0)" fill="#0f1f38"/></g></g></g></g></svg>