<svg xmlns="http://www.w3.org/2000/svg" width="58.591" height="132.854" viewBox="0 0 58.591 132.854"><g transform="translate(1.5 0.376)"><g transform="translate(0 1.023)"><g transform="translate(0 0)"><path d="M25.79,131.031h0c-.049,0-24.438-.278-25.232-.244s-.692-18.584,0-19.362c.463-.521,6.056-2.561,9.685-10.338s3.849-7.686,4.831-20.772-1.043-32.8-1.224-33.666-5.43-.277-6.136-.717.367-6.309.587-6.749,6.508.4,11.105.491c2.168.087,2.776-3.686,3.86-7.329-4.337-4.554-6.587-9.518-5.8-13.9.934-5.231,6.275-12.236,9.412-15.8A12.932,12.932,0,0,1,28.742.861" transform="translate(0 -1.076)" fill="#fff" stroke="#a1a1a1" stroke-width="3"/><path d="M1.243,130.978s28.9-.278,29.692-.244.692-18.584,0-19.362c-.463-.521-6.056-2.561-9.685-10.338S17.4,93.348,16.419,80.261s1.043-32.8,1.224-33.666,5.43-.277,6.136-.717-.367-6.309-.587-6.749-6.508.4-11.105.491c-2.168.087-2.776-3.686-3.86-7.329,4.337-4.554,6.587-9.518,5.8-13.9a13.247,13.247,0,0,0-.41-1.629c-.166-.536-.344-3.209-1.534-2.215a15.278,15.278,0,0,0-3.063,2.924C6.947,20.042,5.172,22.3,4.619,21.4,4.474,21.16,2.6,20.427,4,17.468c1.745-3.7,5.813-8.124,5.575-8.479a65.416,65.416,0,0,0-4.953-6.4A13.134,13.134,0,0,0,2.822.834" transform="translate(24.098 -1.023)" fill="#fff" stroke="#a1a1a1" stroke-width="3"/><path d="M0,0H2.61" transform="translate(23.947 129.766)" fill="none" stroke="#a1a1a1" stroke-width="2"/></g><line y1="4.125" x2="3.481" transform="translate(25.274 0.112)" fill="none" stroke="#a1a1a1" stroke-width="2"/></g></g></svg>