<svg xmlns="http://www.w3.org/2000/svg" width="49.782" height="147.034" viewBox="0 0 49.782 147.034"><g transform="translate(-2144.853 718.541)"><g transform="translate(2146.353 -716.974)"><g transform="translate(0)"><path d="M6688.358-1223.8c1.657-.133,5.62.255,6.191.74s-3.465,6.024-3.173,6.471,6.544-3.311,7.076-3.183.487,10.049,0,10.171-6.885-4.4-7.076-3.7c-.064.238.139,3.995,1.109,4.669.6.654,4.932,1.79,7.78,2.862,3.494,1.4,4.33,1.28,4.834,1.717.162.139-3.551,5.54-4.834,11.664-1.8,7.3-2.308,14.593-1.813,14.663,1.278.089,7.316-.347,7.736,0s.24,7.8,0,8.013-5.343-.084-5.922,0c-.322.047-3.893,28.7-1.245,49.563,2.062,16.24,12.134,25.591,13.643,25.825.408.09.025,5.51,0,9.55-.017,2.639.134,4.837,0,4.877-.313.094-23.507,0-23.507,0" transform="translate(-6666.009 1223.831)" fill="#fff" stroke="#a1a1a1" stroke-width="3"/><path d="M6713.89-1223.8c-1.657-.133-5.116.255-5.687.739s3.466,6.024,3.173,6.471-6.543-3.311-7.076-3.182-.486,10.049,0,10.171,6.887-4.4,7.076-3.7c.065.238-.139,3.994-1.11,4.669-.6.653-4.931,1.79-7.779,2.862-3.494,1.4-4.33,1.28-4.834,1.717-.161.139,3.55,5.54,4.834,11.664,1.8,7.3,2.308,14.593,1.813,14.663-1.278.089-7.315-.347-7.735,0s-.24,7.8,0,8.013,5.342-.084,5.922,0c.322.047,3.892,28.7,1.245,49.563-2.062,16.24-12.134,25.591-13.643,25.825-.459.007-.026,5.51,0,9.55.017,2.639-.134,4.836,0,4.877.313.094,23.507,0,23.507,0" transform="translate(-6689.878 1223.829)" fill="#fff" stroke="#a1a1a1" stroke-width="3"/><line x2="1.249" transform="translate(23.511 0.122) rotate(3)" fill="none" stroke="#a1a1a1" stroke-width="2"/><line x2="0.749" transform="translate(23.51 143.808)" fill="none" stroke="#a1a1a1" stroke-width="2"/></g></g></g></svg>