<svg xmlns="http://www.w3.org/2000/svg" width="69.318" height="125.72" viewBox="0 0 69.318 125.72"><g transform="matrix(0.966, 0.259, -0.259, 0.966, 6.125, -14.423)"><g transform="translate(0 0)"><g transform="translate(0)"><g transform="translate(0)"><g transform="translate(0 17.669) rotate(-16)"><path d="M0,.4H9.958c.327.254-.17,8.758,0,8.968a69.96,69.96,0,0,0,8.162,0c.191-.107-.389-8.618,0-8.968S26.239-.3,26.9.4s.308,8.968.308,8.968S27.37,21.1,26.9,21.927s-6.195,7.5-7.108,9.742-.665,10.059-.665,23.739c0,9.819.249,24.669,3.552,32.293s9.042,8.788,12.369,12.648c.2.4.061,16.6,0,20.385,0,.093.088.737,0,.743-8.718.083,7.337.19-34.038,0" transform="translate(28.954 0)" fill="#fff" stroke="#a1a1a1" stroke-width="3"/><path d="M35.148.4H25.19c-.328.254.17,8.758,0,8.968a69.954,69.954,0,0,1-8.162,0c-.191-.107.389-8.618,0-8.968S8.909-.3,8.252.4s-.308,8.968-.308,8.968S7.778,21.1,8.252,21.927s6.195,7.5,7.107,9.742.665,10.059.665,23.739c0,9.819-.248,24.669-3.551,32.293S3.431,96.49.1,100.35c-.2.4-.061,16.6,0,20.385,0,.093-.087.737,0,.743,8.718.083-7.337.19,34.037,0" transform="translate(0 0)" fill="#fff" stroke="#a1a1a1" stroke-width="3"/></g><line x2="2.237" transform="matrix(0.966, -0.259, 0.259, 0.966, 65.119, 125.144)" fill="none" stroke="#a1a1a1" stroke-width="2"/><line y1="0.493" x2="1.456" transform="translate(33.106 7.962)" fill="none" stroke="#a1a1a1" stroke-width="2"/></g></g></g></g></svg>