<svg xmlns="http://www.w3.org/2000/svg" width="41" height="41.313" viewBox="0 0 41 41.313"><path d="M29.247,40.5h0c-.023-1.771-.149-3.964-.174-4.007a.244.244,0,0,0-.081-.027c-1.681-.439-3.079-2.361-3.937-5.412A53.31,53.31,0,0,1,23.8,18.577c0-.131,0-.208,0-.233a.09.09,0,0,1,.024-.066c.093-.105.45-.12.786-.12.113,0,.231,0,.348,0s.231,0,.337,0a2.1,2.1,0,0,0,.591-.053c.285-.109.234-1.634.126-2.457-.042-.318-.088-.5-.126-.505-.019,0-.094,0-.231,0-.267,0-.72,0-1.284.006-.537,0-1.15.006-1.628.006s-.735,0-.784-.01c-.145-.02-.077-.994-.031-1.639.017-.242.032-.451.031-.552s.176-.245.421-.443A3.26,3.26,0,0,0,23.9,9.271,3.774,3.774,0,0,0,20.6,6.02V6.008h-.036l-.1,0c-.041,0-.087,0-.138,0V6.02a3.773,3.773,0,0,0-3.3,3.251,3.26,3.26,0,0,0,1.521,3.245c.244.2.421.342.421.443s.014.313.031.557c.045.643.113,1.614-.031,1.634-.049.007-.307.01-.789.01-.459,0-1.057,0-1.635-.006s-1.02-.006-1.281-.006c-.134,0-.207,0-.223,0-.032,0-.076.2-.117.526-.1.8-.168,2.327.117,2.436a2.092,2.092,0,0,0,.591.053c.106,0,.219,0,.333,0s.239,0,.352,0c.336,0,.693.014.787.12a.09.09,0,0,1,.024.066c0,.025,0,.1,0,.231a53.328,53.328,0,0,1-1.252,12.478c-.858,3.051-2.256,4.973-3.937,5.412a.246.246,0,0,0-.081.027c-.024.041-.149,2.212-.173,3.967A20.457,20.457,0,0,1,3.6,32.831a22.076,22.076,0,0,1-1.533-19.47A21.083,21.083,0,0,1,6.358,6.668a19.91,19.91,0,0,1,6.357-4.513,19.139,19.139,0,0,1,15.57,0,19.909,19.909,0,0,1,6.357,4.513,21.082,21.082,0,0,1,4.286,6.693A22.076,22.076,0,0,1,37.372,32.87,20.443,20.443,0,0,1,29.248,40.5Z" transform="translate(0 0)" fill="#e6e6e6" stroke="#707070" stroke-width="1"/></svg>