<svg width="161" height="214" viewBox="0 0 161 214" fill="none" xmlns="http://www.w3.org/2000/svg">
<path fill-rule="evenodd" clip-rule="evenodd" d="M74.3455 0.719529C63.9202 2.67953 54.3998 8.274 48.5233 15.8941C40.1496 26.752 38.2821 38.1177 42.7043 51.3049C43.3926 53.3569 43.9063 55.0598 43.8456 55.0892C43.7855 55.1186 42.7501 55.4026 41.5454 55.7205C38.5946 56.4992 36.6154 58.0209 35.4293 60.4231C34.1805 62.9542 34.1778 65.3163 35.4213 67.8081C37.473 71.9191 40.1134 72.8991 49.2169 72.929L55.7626 72.9506L55.4804 77.7257C55.3255 80.3522 55.0636 85.0353 54.8991 88.133C54.3029 99.3474 52.6122 110.953 49.8339 122.906C45.8685 139.966 38.0665 158.867 29.3649 172.493C27.0019 176.194 26.8895 176.289 24.8725 176.289C21.9026 176.289 16.8778 177.848 14.0213 179.656C11.0471 181.539 9.39045 183.466 7.42665 187.329C5.96538 190.203 5.94302 190.389 5.94142 199.637C5.93982 210.083 6.05747 210.475 9.92705 212.898L11.687 214H83.3953H155.104L156.913 212.888C160.329 210.788 160.66 209.518 160.446 199.307C160.282 191.416 160.108 189.899 159.1 187.553C156.395 181.254 149.924 176.961 142.342 176.434L138.32 176.154L134.966 170.717C120.586 147.405 111.954 115.874 110.208 80.2748L109.848 72.9506H115.816C119.099 72.9506 122.812 72.7125 124.068 72.4216C131.023 70.8103 133.162 62.3077 127.778 57.6771C126.044 56.1853 123.885 55.3194 121.898 55.3194C120.827 55.3194 120.62 55.1406 120.905 54.4623C124.92 44.9023 125.228 35.2943 121.813 26.1785C115.06 8.15352 94.23 -3.01828 74.3455 0.719529Z" fill="white"/>
</svg>
