<svg xmlns="http://www.w3.org/2000/svg" width="66.91" height="77" viewBox="0 0 66.91 77"><g transform="translate(-8562.59 -4421.5)"><g transform="translate(25 17)"><path d="M33,16.473H0C.037,15.458.794.234,12.505.074,17.281.009,25.361,0,33.4,0l3.828,0c6.74,0,13.139.019,17.177.074,11.71.16,12.468,15.385,12.505,16.4Z" transform="translate(8537.59 4465.027)" fill="#686564"/><g transform="translate(270 -18)"><path d="M34.027,16.473h-33A24.975,24.975,0,0,1,4.057,5.664a17.976,17.976,0,0,0,2.4-.23,82.785,82.785,0,0,1,16.7-2.1c6.132-.2,14.015.2,20.706.267,2.657.025,5.814-.127,8.866-.279a92.358,92.358,0,0,1,10.051-.2l.167.015c4.567,4.542,4.966,12.608,4.993,13.337Z" transform="translate(8266.563 4483.027)" fill="#575452"/><path d="M33,13.432H25.071c.473-.109,1.027-.223,1.672-.342,8.5-1.567,32.132-3.169,39.479-4.458a26.976,26.976,0,0,1,.688,4.8Z" transform="translate(8267.59 4486.067)" fill="#464342"/></g></g><path d="M18.846,60.173H5.273S-2.893,49.743,1.1,37.479C4.808,26.08,12.374,17.494,19,9.634A5.308,5.308,0,0,1,16.171,5.2c0-3.149,3.414-5.7,7.624-5.7s7.624,2.553,7.624,5.7a5.26,5.26,0,0,1-2.7,4.351c1.094,1.3,2.187,2.585,3.2,3.8.682.818-6.712,19.071-3.176,20.479,1.143.455,2.135-1.2,2.889-3.308,1.907-5.318,3.126-13.626,3.923-12.687,1.179,1.387,8.742,12.3,11.132,19.647,3.992,12.264-4.175,22.694-4.175,22.694Z" transform="translate(8572.514 4422)" fill="#575452"/><path d="M32.506,60.673c3.939-2.8,12.21-10.535,10.94-25.618-.17-2.014-1.5-5.316-2.085-7.987a59.452,59.452,0,0,1,5.328,10.91c3.992,12.264-4.175,22.694-4.175,22.694Z" transform="translate(8572.514 4421.5)" fill="#464342"/><path d="M10.228,37.978C13.85,26.847,21.15,18.4,27.659,10.688c.512.643.988,2.586-3.294,7.872-1.945,2.4-7.216,9.007-9.608,14.9-3.138,7.735-4.15,16.278-3.325,21.977A24.5,24.5,0,0,1,10.228,37.978Z" transform="translate(8563.385 4421.5)" fill="#686564"/><path d="M16.171,7.361c0-3.124,3.359-5.661,7.522-5.7-7.046,2.787-6.049,8.068-5.651,9.444A4.954,4.954,0,0,1,16.171,7.361Z" transform="translate(8572.514 4419.842)" fill="#686564"/><path d="M29.1,17.125c-.741-1.426-4.022-3.011-4.022-3.011s6.777-2.12,2.789-8.844C30,6.28,31.419,8.063,31.419,10.094a5.257,5.257,0,0,1-2.7,4.351c1.051,1.248,2.1,2.484,3.078,3.652l-.206.482A2.955,2.955,0,0,1,29.1,17.125Z" transform="translate(8572.514 4417.109)" fill="#464342"/><path d="M24.926,31.694c-.145-3.622,2.634-11.781,2.634-11.781a25.594,25.594,0,0,0,1.5-6.133c.056-2.264-1.282-2.928-1.282-2.928l1.687.084c.842,1,1.672,1.976,2.452,2.911.682.818-6.712,19.071-3.176,20.479.865.344,1.643-.518,2.3-1.872a3.383,3.383,0,0,1-.716,1.382,4.12,4.12,0,0,1-2.695,1.182C26.2,35.018,25.016,33.942,24.926,31.694Z" transform="translate(8572.514 4421.5)" fill="#464342"/></g></svg>