<svg xmlns="http://www.w3.org/2000/svg" width="66.91" height="77" viewBox="0 0 66.91 77"><g transform="translate(-8436.59 -4383.5)"><path d="M2.678,16.307A90.859,90.859,0,0,1,2.067,3.985,46.124,46.124,0,0,1,7.1,2.451l.21-.029S3.174,7.84,3.15,18.993A16.112,16.112,0,0,1,2.678,16.307Z" transform="translate(8442.469 4383.5)" fill="#686564"/><path d="M25.056,63.1H4.323L8.408,25.789s-6.9-.145-7.775-9.483A90.777,90.777,0,0,1,.021,3.986C-.017,3.832,9.1,1.178,9.445,1.6s3.5,11.154,3.5,11.154H17.33S19,.488,19.278,0H31.609c.276.488,1.949,12.755,1.949,12.755h4.385S41.1,2.024,41.443,1.6,50.9,3.832,50.866,3.986a90.779,90.779,0,0,1-.611,12.321c-.879,9.338-7.774,9.483-7.774,9.483L46.564,63.1Z" transform="translate(8444.515 4383.5)" fill="#575452"/><path d="M19.278,1.85h4.947c-2.152,1.353-4.616,2.786-6.272,8.288C18.459,6.578,19.115,2.14,19.278,1.85Z" transform="translate(8444.515 4381.65)" fill="#686564"/><path d="M41.442,1.6a5.733,5.733,0,0,1,2.231.308l.054.034S40.636,6.006,39.3,8.22C40.2,5.235,41.251,1.836,41.442,1.6Z" transform="translate(8444.515 4383.5)" fill="#686564"/><path d="M39.136,60.527S31.784,26.18,19.166,26.435c-3.749.076-5.124-.45-3.389-.8a75.755,75.755,0,0,1,21.162-.982c9.33-1.524,9.69-19.325,10.036-21.888a33.372,33.372,0,0,1,3.892,1.222,91.018,91.018,0,0,1-.612,12.322c-.878,9.337-7.774,9.482-7.774,9.482l3.8,34.7-.006.039Z" transform="translate(8444.515 4383.5)" fill="#464342"/><path d="M33,16.473H0C.037,15.458.794.234,12.505.074,17.281.009,25.361,0,33.4,0l3.828,0c6.74,0,13.139.019,17.177.074,11.71.16,12.468,15.385,12.505,16.4Z" transform="translate(8436.59 4444.027)" fill="#686564"/><g transform="translate(169 -39)"><path d="M34.027,16.473h-33A24.975,24.975,0,0,1,4.057,5.664a17.976,17.976,0,0,0,2.4-.23,82.785,82.785,0,0,1,16.7-2.1c6.132-.2,14.015.2,20.706.267,2.657.025,5.814-.127,8.866-.279a92.358,92.358,0,0,1,10.051-.2l.167.015c4.567,4.542,4.966,12.608,4.993,13.337Z" transform="translate(8266.563 4483.027)" fill="#575452"/><path d="M33,13.432H25.071c.473-.109,1.027-.223,1.672-.342,8.5-1.567,32.132-3.169,39.479-4.458a26.976,26.976,0,0,1,.688,4.8Z" transform="translate(8267.59 4486.067)" fill="#464342"/></g></g></svg>