<svg xmlns="http://www.w3.org/2000/svg" width="66.91" height="86.233" viewBox="0 0 66.91 86.233"><g transform="translate(-8436.59 -4736.267)"><g transform="translate(-3 1)"><path d="M26.885,72.813H12.755s1.975-10.282-11.129-32.2c-1.088-1.82-3.641-4.921,1.35-7.674S18.2,29.315,20.144,29.078c.319-.038,1.494-.055,1.535-.115a43.532,43.532,0,0,1,4.071-6.608V17.762H17.018V8.621H25.86V0h8.617V8.621h8.84v9.141h-8.73v4.592a43.567,43.567,0,0,1,4.07,6.608c.042.061,1.218.077,1.535.115,1.94.237,12.175,1.109,17.167,3.862s2.439,5.854,1.352,7.674c-13.1,21.917-11.129,32.2-11.129,32.2Z" transform="translate(8442.954 4735.267)" fill="#d2ceb4"/><path d="M.053,1.32A6.224,6.224,0,0,1,.016,0H8.429C8.17.628,7.642,1.568,6.811,1.528c-.406-.02-1.254.008-2.215.035-.739.021-1.546.043-2.273.043C1.1,1.607.1,1.546.053,1.32Z" transform="translate(8477.438 4743.889)" fill="#e0ddcb"/><path d="M0,17.762V8.62H8.841V0h8.617V1.415a1.261,1.261,0,0,1-1.079.435c-2.043-.038-5.827-.344-5.85.158s.284,6.776-.333,7.585-.617.77-3.931.77-4.418-.193-4.509.331v7.069Z" transform="translate(8459.973 4735.268)" fill="#e0ddcb"/><path d="M1.626,11.565C.538,9.746-2.016,6.644,2.977,3.892S18.2.266,20.144.03c.093-.011.259-.021.448-.03-.236.923-.768,2.242-1.912,2.56-1.8.5-13.143,2.468-14.8,4.571S6.841,14.54,7.268,18.773c.244,2.425.528,3.265.227,3.851A114.738,114.738,0,0,0,1.626,11.565Z" transform="translate(8442.954 4764.315)" fill="#e0ddcb"/><path d="M11.021,13.649A44.609,44.609,0,0,1,5.5,12.983C3.5,12.526,0,4.953,0,4.953A10.822,10.822,0,0,1,.691.986,2.17,2.17,0,0,1,2.34,0a.462.462,0,0,1,.111,0H2.359V4.595A43.546,43.546,0,0,1,6.429,11.2c.042.061,1.217.077,1.536.115,1.143.139,5.17.5,9.3,1.336-.106.3-.482.838-1.6,1a14.617,14.617,0,0,1-1.892.1C12.4,13.746,11.021,13.649,11.021,13.649Z" transform="translate(8475.182 4753.027)" fill="#bdb9a2"/><path d="M0,37.441C2.243,30.715,11.359,4.886,20.64,0c.987,2-.529,3.948-1.3,5.242-13.106,21.918-11.13,32.2-11.13,32.2Z" transform="translate(8482.327 4770.639)" fill="#bdb9a2"/></g><g transform="translate(-101 341)"><path d="M33,16.473H0C.037,15.458.794.234,12.505.074,17.281.009,25.361,0,33.4,0l3.828,0c6.74,0,13.139.019,17.177.074,11.71.16,12.468,15.385,12.505,16.4Z" transform="translate(8537.59 4465.027)" fill="#e0ddcb"/><g transform="translate(270 -18)"><path d="M34.027,16.473h-33A24.975,24.975,0,0,1,4.057,5.664a17.976,17.976,0,0,0,2.4-.23,82.785,82.785,0,0,1,16.7-2.1c6.132-.2,14.015.2,20.706.267,2.657.025,5.814-.127,8.866-.279a92.358,92.358,0,0,1,10.051-.2l.167.015c4.567,4.542,4.966,12.608,4.993,13.337Z" transform="translate(8266.563 4483.027)" fill="#d2ceb4"/><path d="M33,13.432H25.071c.473-.109,1.027-.223,1.672-.342,8.5-1.567,32.132-3.169,39.479-4.458a26.976,26.976,0,0,1,.688,4.8Z" transform="translate(8267.59 4486.067)" fill="#bdb9a2"/></g></g></g></svg>