<svg xmlns="http://www.w3.org/2000/svg" width="75.749" height="79.548" viewBox="0 0 75.749 79.548"><g transform="translate(-8434.59 -4552.952)"><g transform="translate(-144 106)"><g transform="translate(0 -5)"><path d="M8212.368,4072.453s1.888-13.475-5.064-17.08-11.944-8.681-9.7-14.241c.463-1.151,1.543-3.021,2.029-3.211s6.075,9.493,14.8,8.771c.584.026.619-.261,2.04,1.291s3.341,4.829,4.026,4.87a22.616,22.616,0,0,0,7.381-2.1,7.075,7.075,0,0,0,3.537-4.221c.415-2.08-5.757-8.748-9.481-15.5s-2.022-8.351-5.418-11.516-5.666-4.4-5.435-9.186c-.191-1.088-.608-1.176-1.135-1.584-.654-.537-1.215-.841-1.456-.784s-6.877,7.307-6.877,7.307-20.83-1.293-28.8,23.643c-2.392,7.481-5.131,12.016-6.534,16.844-3.145,10.822-.771,16.7-.771,16.7Z" transform="translate(422.905 444)" fill="#d2ceb4"/><path d="M0,7.383a18.646,18.646,0,0,1,2.874-.127S8.921.649,9.679,0C9.6,2.61,6.272,6.71,4.559,8.513a1.844,1.844,0,0,1-1.382.612A5.214,5.214,0,0,1,0,7.383Z" transform="translate(8621.644 4452.011)" fill="#e0ddcb"/><path d="M.084,48.764l.176-.953A.108.108,0,0,1,.169,47.8,41.206,41.206,0,0,1,1.63,40.493c1.4-4.828,4.142-9.364,6.533-16.844C15.1,1.959,31.761.113,35.982,0l1.27,1.8A23.863,23.863,0,0,0,25.368,5.356C18.942,9.13,14.862,14.15,13.446,17.911c-.961,2.551-2.337,5.9-4.852,12.049S5.378,36.27,3.385,42.5c-.8,2.513-.668,5.019-1.407,6.954A16.491,16.491,0,0,1,.1,53.352,28.24,28.24,0,0,1,.084,48.764ZM37.252,1.8Z" transform="translate(8587.551 4459.261)" fill="#e0ddcb"/><path d="M6.471,4.379C5.257,3.053,5.054,3.071,4.657,3.087c-.067,0-.142.005-.226,0A11.429,11.429,0,0,1,0,2.575c.024-.4.723-1.069,3.243-2.155C7.684-1.495,7.635,3.653,7.467,5.606,7.123,5.149,6.785,4.722,6.471,4.379Z" transform="translate(8632.904 4487.602)" fill="#bdb9a2"/><path d="M1.054.016c.161-.322,1.336,4.4,1.822,6.393A9.622,9.622,0,0,0,.9,9.594a7.757,7.757,0,0,0-.316.957C-.886,8.191.861.4,1.054.016Z" transform="translate(8619.604 4475.538)" fill="#bdb9a2"/><path d="M13.136,26.973c-.844-4.079-2.033-9.38-6.1-11.788C-.1,10.954,0,2.459,0,2.459L.18,0C1.1,3.828,5.14,7.254,10.228,9.893c6.952,3.6,5.064,17.08,5.064,17.08Z" transform="translate(8619.98 4489.48)" fill="#bdb9a2"/></g></g><path d="M33,16.473H0C.037,15.458.794.234,12.505.074,17.281.009,25.361,0,33.4,0l3.828,0c6.74,0,13.139.019,17.177.074,11.71.16,12.468,15.385,12.505,16.4Z" transform="translate(8434.59 4616.027)" fill="#e0ddcb"/><g transform="translate(167 133)"><path d="M34.027,16.473h-33A24.975,24.975,0,0,1,4.057,5.664a17.976,17.976,0,0,0,2.4-.23,82.785,82.785,0,0,1,16.7-2.1c6.132-.2,14.015.2,20.706.267,2.657.025,5.814-.127,8.866-.279a92.358,92.358,0,0,1,10.051-.2l.167.015c4.567,4.542,4.966,12.608,4.993,13.337Z" transform="translate(8266.563 4483.027)" fill="#d2ceb4"/><path d="M33,13.432H25.071c.473-.109,1.027-.223,1.672-.342,8.5-1.567,32.132-3.169,39.479-4.458a26.976,26.976,0,0,1,.688,4.8Z" transform="translate(8267.59 4486.067)" fill="#bdb9a2"/></g></g></svg>