<svg xmlns="http://www.w3.org/2000/svg" width="60.154" height="79.5" viewBox="0 0 60.154 79.5"><g transform="translate(-8280.923 -4246)"><g transform="translate(-261 -135)"><path d="M.031,52.5c-.092-1.376-.583-13.281,9.45-19.358A26.308,26.308,0,0,0,19.7,22.063c2.135-4.481,2.559-8.3,2.27-8.837-.173-.325-2.636-.3-4.83-.268a28.234,28.234,0,0,1-3.277-.049c-1.154-.217-1.855-5.031-1.551-6.127S20.142,2,20.519,1.2C20.708.8,25.659.773,30.577.849V52.5Z" transform="translate(8541.924 4408)" fill="#d2ceb4"/><path d="M19.942,51.3c-.377-.8-7.9-4.487-8.206-5.584s.4-5.91,1.551-6.127a28.007,28.007,0,0,1,3.28-.049c2.194.028,4.656.057,4.828-.266.288-.542-.136-4.357-2.271-8.838A26.311,26.311,0,0,0,8.906,19.358C-1.127,13.281-.637,1.376-.545,0H30V51.65c-1.356.021-2.714.035-3.974.035C22.714,51.685,20.079,51.592,19.942,51.3Z" transform="translate(8601.5 4460.5) rotate(180)" fill="#d2ceb4"/><circle cx="16" cy="16" r="16" transform="translate(8556 4381)" fill="#d2ceb4"/></g><path d="M15.012,19.359A16.013,16.013,0,0,1,33.243,3.514c-2.9,1.034-8.921,3.6-12.04,7.993C17.93,16.114,17.853,21.3,16,24.9A15.969,15.969,0,0,1,15.012,19.359Z" transform="translate(8279.988 4242.64)" fill="#e0ddcb"/><path d="M42.481,62.836c-10.7-3.482-18.743-17.17-21.034-21.441a2.748,2.748,0,0,0-.053-1.17c-.027-.051-.111-.093-.241-.128l25.411-1.267c-.24.6-.527,1.02-.85,1.08a28.315,28.315,0,0,1-3.277.048c-2.2-.029-4.658-.057-4.831.267-.289.542.134,4.356,2.268,8.837A26.322,26.322,0,0,0,50.1,60.141a18.766,18.766,0,0,1,7.782,9.281A92.571,92.571,0,0,0,42.481,62.836Z" transform="translate(8281.5 4246)" fill="#bdb9a2"/><path d="M12.546,60.143a26.881,26.881,0,0,0,8.662-8.3c-.668,2.068-3.665,10.685-8.032,13.279-4.976,2.955-4.338,4.873-7.5,7.675-.832.738-1.619,1.368-2.328,1.9A19.973,19.973,0,0,1,12.546,60.143Z" transform="translate(8277.859 4246)" fill="#e0ddcb"/><path d="M27.987,35.9S52.328,30.646,38.9,9.942a16,16,0,0,1,.518,25.507c.169.131.389.283.648.451Z" transform="translate(8281.5 4239.107)" fill="#bdb9a2"/><path d="M21.472,40.672a1.16,1.16,0,0,0-.078-.447c-.173-.324-2.636-.3-4.829-.267a28.28,28.28,0,0,1-3.276-.048c-.462-.087-.852-.91-1.133-1.937l22.943.264s6.527.288,7.2-3.3-6.044-5.857-2.635-8.182a5.623,5.623,0,0,1,2.344-.772,16.1,16.1,0,0,1-2.59,2.578c1.571,1.217,7.573,4.247,7.846,5.224.3,1.1-.4,5.911-1.55,6.129a28.315,28.315,0,0,1-3.277.048c-2.2-.029-4.658-.057-4.831.267a1.407,1.407,0,0,0-.081.564Z" transform="translate(8281.5 4246)" fill="#bdb9a2"/></g></svg>